<svg
  width="25"
  height="25"
  viewBox="0 0 25 25"
  fill="none"
  xmlns="http://www.w3.org/2000/svg"
>
  <g clip-path="url(#clip0_10_292)">
    <path
      d="M10.8375 1.60458C11.7527 0.679576 13.247 0.679578 14.1623 1.60458L15.1449 2.59763C15.6372 3.09518 16.3265 3.34606 17.0235 3.28137L18.4145 3.15226C19.7102 3.032 20.8549 3.99251 20.9615 5.28943L21.0759 6.68176C21.1332 7.37937 21.5 8.01462 22.0755 8.41306L23.2241 9.2083C24.294 9.94905 24.5534 11.4206 23.8014 12.4826L22.9941 13.6228C22.5896 14.194 22.4622 14.9164 22.6469 15.5915L23.0156 16.939C23.3591 18.1942 22.6119 19.4883 21.3532 19.8184L20.0019 20.1729C19.3249 20.3504 18.7629 20.8219 18.4705 21.4579L17.8868 22.7271C17.3431 23.9094 15.9389 24.4204 14.7624 23.8643L13.4994 23.2672C12.8666 22.968 12.1331 22.968 11.5003 23.2672L10.2373 23.8643C9.06087 24.4204 7.65669 23.9094 7.11298 22.7271L6.52927 21.4579C6.23682 20.8219 5.6749 20.3504 4.99785 20.1729L3.64654 19.8184C2.38783 19.4883 1.64068 18.1942 1.98412 16.939L2.35282 15.5915C2.53755 14.9164 2.41017 14.194 2.00567 13.6228L1.19834 12.4826C0.446324 11.4206 0.705808 9.94905 1.77569 9.2083L2.92428 8.41306C3.49977 8.01462 3.86653 7.37937 3.92385 6.68176L4.03825 5.28943C4.14481 3.99251 5.28951 3.032 6.58524 3.15226L7.97628 3.28137C8.67324 3.34606 9.36253 3.09518 9.85485 2.59763L10.8375 1.60458Z"
      fill="url(#paint0_linear_10_292)"
    />
    <path
      d="M11.1254 17.034C10.7736 17.034 10.4218 16.8993 10.1537 16.6313L7.40499 13.8825C6.86761 13.3452 6.86761 12.4766 7.40499 11.9392C7.94237 11.4018 8.81098 11.4018 9.34836 11.9392L11.1254 13.7162L15.6513 9.19042C16.1886 8.65304 17.0573 8.65304 17.5946 9.19042C18.132 9.7278 18.132 10.5964 17.5946 11.1338L12.0971 16.6313C11.8291 16.8993 11.4773 17.034 11.1254 17.034Z"
      fill="url(#paint1_linear_10_292)"
    />
  </g>
  <defs>
    <linearGradient
      id="paint0_linear_10_292"
      x1="12.4999"
      y1="0.910828"
      x2="12.4999"
      y2="24.0892"
      gradientUnits="userSpaceOnUse"
    >
      <stop stop-color="#63ED67" />
      <stop offset="1" stop-color="#30C935" />
    </linearGradient>
    <linearGradient
      id="paint1_linear_10_292"
      x1="12.4998"
      y1="17.034"
      x2="12.4998"
      y2="8.78738"
      gradientUnits="userSpaceOnUse"
    >
      <stop stop-color="#004703" />
      <stop offset="1" stop-color="#007004" />
    </linearGradient>
    <clipPath id="clip0_10_292">
      <rect
        width="24"
        height="24"
        fill="white"
        transform="translate(0.5 0.5)"
      />
    </clipPath>
  </defs>
</svg>